<?xml version="1.0" encoding="UTF-8" standalone="no"?>
<svg
   xmlns:dc="http://purl.org/dc/elements/1.1/"
   xmlns:cc="http://creativecommons.org/ns#"
   xmlns:rdf="http://www.w3.org/1999/02/22-rdf-syntax-ns#"
   xmlns:svg="http://www.w3.org/2000/svg"
   xmlns="http://www.w3.org/2000/svg"
   xmlns:sodipodi="http://sodipodi.sourceforge.net/DTD/sodipodi-0.dtd"
   xmlns:inkscape="http://www.inkscape.org/namespaces/inkscape"
   width="787.97229"
   height="803.00043"
   id="svg2"
   version="1.1"
   inkscape:version="0.47 r22583"
   sodipodi:docname="Flag-map_of_Greece.svg">
  <metadata
     id="metadata264">
    <rdf:RDF>
      <cc:Work
         rdf:about="">
        <dc:format>image/svg+xml</dc:format>
        <dc:type
           rdf:resource="http://purl.org/dc/dcmitype/StillImage" />
      </cc:Work>
    </rdf:RDF>
  </metadata>
  <defs
     id="defs262">
    <inkscape:perspective
       sodipodi:type="inkscape:persp3d"
       inkscape:vp_x="0 : 414.5 : 1"
       inkscape:vp_y="0 : 1000 : 0"
       inkscape:vp_z="804 : 414.5 : 1"
       inkscape:persp3d-origin="402 : 276.33333 : 1"
       id="perspective266" />
  </defs>
  <sodipodi:namedview
     pagecolor="#ffffff"
     bordercolor="#666666"
     borderopacity="1"
     objecttolerance="10"
     gridtolerance="10"
     guidetolerance="10"
     inkscape:pageopacity="0"
     inkscape:pageshadow="2"
     inkscape:window-width="1280"
     inkscape:window-height="979"
     id="namedview260"
     showgrid="false"
     inkscape:zoom="0.91780773"
     inkscape:cx="393.98615"
     inkscape:cy="401.50021"
     inkscape:window-x="-4"
     inkscape:window-y="-4"
     inkscape:window-maximized="1"
     inkscape:current-layer="svg2" />
  <path
     style="fill:#0d5eaf;fill-opacity:1"
     d="m 588,0 c 12.3,4.965 25.82,7.831 36.75,16.25 2.151,12.24 10.04,26.15 2,37.5 -2.398,1.458 -4.209,-1.579 -6.5,-0.5 -4.592,5.062 -9.445,10.07 -16,11 0.9382,9.134 -1.497,18.29 4.75,26.75 -4.435,4.949 -8.79,10.15 -13.75,14.25 -3.34,7.052 -4.669,15.62 -12.5,19.5 -1.759,0.7343 -4.099,2.342 -5.5,0 l -3.5,-10.5 C 554.48,108.535 532.76,111.788 515,101 c -6.889,0.2642 -13.35,-0.6351 -19.75,-2.25 -4.166,-2.129 2.683,-8.509 -2.25,-8.75 -4.388,4.811 -6.828,12.12 -14.75,12.25 -9.401,12.34 -27.72,12.07 -36.5,-1 L 432,101 c -11.41,6.901 -15.54,22.68 -30,25 -10.32,-1.222 -22.8,-7.961 -32.75,-1.75 0.9389,7.782 9.473,16.05 17.5,17 4.676,5.578 2.332,9.9 -3.75,11.75 0.5717,2.439 0.9503,5.127 3.25,6.75 6.151,5.215 7.19,-4.938 11.75,-4.75 4.76,4.803 9.564,10.94 16.75,12.25 7.176,7.863 15.12,15.62 18.25,25.75 -3.855,2.746 -9.757,3.892 -14.75,3.75 -2.703,-3.835 -4.435,-8.271 -6.5,-12.5 C 400.61,177.557 389.61,168.78 376,169 l -5.75,3.25 c 0.11,2.659 1.91,5.553 4,7.5 2.618,1.205 4.673,3.323 7,5 13.79,2.485 24.96,26.43 8.75,32.25 l -3.75,-1.25 -10,-5 c -1.95,-10.22 -8.053,-19.03 -15.5,-26.5 -7.672,-0.4181 -15.65,-6.599 -22.5,-5 -2.977,13.04 13.95,24.68 25.5,27 L 377,221 c -0.1798,0.951 -1.049,1.82 -2,2 -7,-0.1674 -14.21,0.6884 -20.75,-1.25 -5.082,-5.333 -11.76,-7.266 -18,-10 -3.261,-8.162 -6.42,-16.13 -5.5,-25.5 -11.7,-7.586 -25.55,-11.86 -36,-22 L 289,151 c 1.837,-4.966 8.692,-3.083 11,-7 -1.128,-1.949 -3.052,-3.872 -5,-5 -4.139,4.484 -11.06,5.194 -14.25,11.75 -6.527,-0.3347 -7.967,8.61 -5.75,13.25 l 0,7 c -2.943,8.344 -10.57,14.92 -8,25 1.445,5.155 4.384,9.697 8.75,13.25 4.994,13.56 19.86,22.2 19.25,37.75 l 2.25,7.75 c 3.263,4.184 7.594,6.405 12.5,7.5 8.911,14.11 23.46,25.69 28.5,41.5 3.054,-0.3892 5.391,-4.03 8.75,-4.75 3.709,1.956 6.061,5.673 5,10 -2.784,5.759 -12.42,5.263 -15,0 -8.258,7.327 -18.74,10.18 -30,9 5.279,9.746 -7.476,15.68 -14.75,19.75 5.904,-1.74 15.62,-2.054 17,-9.5 l 20.5,-8 c 4.651,3.153 9.026,6.751 13,11 2.006,12.88 12.89,22.63 26,23 8.631,10.96 22.48,8.93 35.25,8.75 l 2.75,2.25 c -2.197,8.404 6.691,10.35 9.25,16.75 l -4,6 c 1.952,9.299 3.599,18.6 6.25,27.75 6.847,7.455 16.64,10.55 26.75,9.25 1.761,-0.4644 2.632,1.308 3.75,2.25 l 1,14.5 c -2.676,7.693 -12.09,11.48 -17.75,4.25 -5.406,7.319 -13.85,-3.431 -12.25,-9.75 -15.07,-5.069 -14.34,-25.41 -25,-36 L 370,399 l -5.75,0.25 c 5.008,5.958 13.88,6.945 20.75,9.75 6.513,1.363 11.96,6.148 17,10 0.3488,2.868 -0.2507,5.451 -1,8 -12.92,17.8 8.129,39.39 -0.25,57.75 -11.73,3.829 -16.68,-6.62 -20,-15.5 -13.63,2.859 -12.02,-16.77 -24.5,-17.5 l -3,-2 c -1.079,-2.291 1.958,-4.102 0.5,-6.5 L 348,443 c -5.37,4.421 -11.64,7.296 -19,6 -7.26,3.998 -15.08,5.964 -22.75,8.25 -0.1173,0.8774 0.9979,1.586 1.75,1.75 9.07,-2.853 11.4,4.439 14,11 -3.44,4.174 -6.899,11.63 -1.75,16.75 l 8.5,5 c -2.922,-7.601 4.395,-10.38 11,-9.5 5.168,4.33 1.594,9.651 0.5,14.5 5.26,2.897 11,6.856 12.5,13 -7.168,8.156 -24.37,0.9491 -27,14 l -2.5,2.5 L 319,528 c -6.535,1.007 -19.49,-12.74 -9.75,-15.75 0.684,-0.8434 2.373,-1.686 1.5,-3 L 300,503 c -5.554,-4.286 -12.54,-2.489 -18.75,-0.75 -1.12,14.37 14.1,25.84 13,39.5 0.6139,0.8551 1.491,1.285 2.5,1.5 7.335,15.43 12.73,31.27 16.25,47.75 -5.261,0.1872 -7.259,4.387 -6,10 5.247,8.205 12.94,15.53 14.75,24.75 -8.541,1.381 -17.3,1.18 -19,-8.5 -12.41,1.473 -11.81,-15.12 -20.5,-18.5 l -1,-2 c -0.5372,-4.61 -0.0867,-9.641 -2.5,-13.5 l -15.5,3 c -3.607,7.733 -5.593,15.8 -8.25,23.75 2.433,6.194 5.729,17.46 -1.75,20.75 -1.526,-7.914 -10.35,-8.796 -16,-13 -0.3922,-0.7697 -0.3922,-1.73 0,-2.5 10.11,-13.19 -1.993,-29.27 -6.5,-42 -3.321,-1.193 -7.851,1.272 -10.5,-1.5 L 220,566 c 1.804,-4.361 0.7153,-9.079 -4.25,-10.75 -3.854,1.26 -7.951,3.041 -11.5,5 L 204,585 c -2.529,3.027 -4.378,6.966 -8,9 -5.383,-5.082 -4.507,-16.99 -16,-13 l -2.75,-1.25 c -0.5482,-5.784 1.867,-11.48 0.5,-17.5 -3.554,-4.562 -7.102,-9.128 -9.75,-14.25 0.1221,-5.013 -0.6148,-10.19 1.25,-14.75 L 179,520 c -0.4973,-16.84 -15.21,-26.36 -26.25,-37.75 l -7.5,0.5 c -0.4327,-0.5734 -1.272,-0.8954 -1.25,-1.75 2.341,-5.131 0.8139,-11.88 -3.25,-15.75 -9.484,-1.27 -16.51,-7.747 -13.75,-18.25 0.1798,-0.951 1.049,-1.82 2,-2 1.809,-0.14 3.552,-0.0847 5,1 10.33,-6.208 18.43,-16.65 18.25,-28.75 4.628,-2.957 8.669,-0.9621 13.5,0 3.476,1.159 7.04,3.473 11,2.5 l 5,-5 c 4.782,-12.03 19.04,-12.42 30,-12.5 l 4.5,6.5 c 5.63,-0.5649 7.569,4.767 11,8 18.19,5.137 38.85,8.812 52,24 2.589,1.253 4.997,2.799 7,5 3.129,-0.1416 6.872,3.095 9.5,0 -2.006,-3.563 -15.35,-4.812 -7.75,-9.75 l 8,-4 c 7.302,0.2756 18.07,3.78 23.75,-1.75 -7.509,-17.49 -34.27,-3.172 -42,-20 l -6,-7 c -5.797,-1.072 -4.91,9.624 -10.5,9.5 -3.102,-5.394 -2.508,-13.51 -9.5,-15.5 -3.906,-0.727 0.3607,6.366 -3.75,6.75 l -18,0 c -6.804,-2.191 -13.4,-5.11 -20,-8 -6.169,4.403 -14.19,1.78 -20,7 -8.083,-4.817 -14.81,3.457 -23,4 l -16,-9 c -6.717,2.454 -11.84,12.02 -19.75,7.75 l -5.5,-25.5 c -6.133,-1.524 -5.231,-9.133 -7,-14 -8.16,-0.9128 -7.801,-9.863 -10,-16 -0.7697,-0.3922 -1.73,-0.3922 -2.5,0 -1.939,1.807 -4.516,1.697 -7,2 -2.334,4.571 -1.323,9.883 -3.5,14.5 -4.225,4.561 -10.58,4.712 -15.75,7.25 l -2.75,-2.25 c -2.443,-14.47 6.794,-31.44 21.5,-34 l 1.5,-6.5 c 7.857,-3.256 21.8,-7.211 25.75,2.75 1.852,-1.665 4.477,-2.913 6.75,-1.25 0.4159,-2.74 0.4159,-5.76 0,-8.5 -7.477,-3.539 -20.61,-0.2145 -26,-9 -4.499,1.079 -0.291,10.52 -4.75,12.75 -2.748,0.1045 -5.408,0.2238 -7.75,-1.25 -1.342,-14.95 -19.39,-21.66 -22.5,-35.5 -4.265,-1.263 -9.434,-0.4934 -12.5,-4.5 l -3,-6 C 55.3546,264.54 39.66,254.95 33,241 l 0.25,-2.75 c 7.194,-0.9552 13.13,5.084 20.5,3.5 9.815,-2.245 2.24,-22.76 12.5,-15 1.009,0.7675 1.886,-0.3459 2.5,-1 C 68.5161,218.806 62.343,213.1 62,206 c -0.02225,-0.8546 0.8173,-1.177 1.25,-1.75 7.496,-0.189 10.04,-15.95 19,-8.5 L 85,196 c 2.811,-1.774 6.642,-1.204 8.75,-4.25 4.464,-15.31 9.421,-30.93 18.5,-44.5 12.93,6.217 24.98,-17.63 12,-25.5 L 123,119 c -0.0304,-5.105 -0.1881,-10.51 2.25,-14.75 10.55,-3.013 20.6,-3.081 31.75,-2.25 6.662,-3.733 17.76,-7.268 23,0 2.792,-1.439 4.515,-4.343 6.25,-6.75 17.22,4.304 19.64,-20.54 34.75,-24.25 5.423,4.629 9.996,-0.7127 15,-2 11.52,2.335 30.09,13.22 38.25,-0.75 L 277,68 l 3,2 c 5.416,-4.996 3.046,-15.16 9,-20 10.59,0.1015 20.78,1.609 31,3 5.195,-2.265 6.875,-9.118 12,-12 2.742,0.5843 2.542,4.242 5,5 l 11,-4 7,1 c 11.34,5.844 22.5,-3.459 32,-9 4.214,-0.7505 6.528,6.476 10.75,2.75 1.912,-3.745 1.431,-8.301 4.5,-11.5 3.27,-1.013 5.563,2.839 8.75,2.75 2.975,-1.143 4.2,-5.911 8,-5 5.557,10.58 16.15,-0.5726 24.75,1.25 l 5.5,14.5 c 6.449,0.5881 11.33,3.278 15.75,8.25 13.31,-9.564 26.06,5.021 38.75,9.25 0.1674,1.578 1.499,2.437 2.5,3.5 L 512,60 c 9.129,-3.039 19.41,-2.109 28,-7 5.991,0.9416 11.14,-1.034 16,-4 l 4,0 c 6.634,6.379 16.37,0.7144 23.75,-1.25 5.193,-7.681 1.07,-15.83 1,-24.5 C 582.043,19 576.228,16.331 575,11 578.151,6.138 584.774,4.74 588,0 z"
     id="path6" />
  <path
     style="fill:#ffffff"
     d="m 626,46 -37,0 c 2.701,-6.499 -0.6318,-13.2 0,-20 l -1,-2 c 2.381,-7.113 -6.885,-6.568 -8,-12 l 10,-8 c 10.19,6.555 22.92,6.38 31.75,15.25 L 627,42 l 0,3 c -0.1667,0.5 -0.5,0.8333 -1,1 z"
     id="path8" />
  <path
     style="fill:#ffffff"
     d="m 458,46 -83,0 0.25,-0.75 c 4.291,-1.862 8.015,-4.643 12,-7 3.572,2.488 7.896,3.614 12.5,2.5 3.163,-2.796 1.698,-7.6 4.5,-10.5 l 1.5,0 c 3.368,3.172 8.176,1.786 10.5,-2 L 418,28 c 0.8546,-0.02224 1.177,0.8173 1.75,1.25 0.2151,1.009 0.6449,1.886 1.5,2.5 6.967,1.324 12.77,-4.02 19.5,-3.5 l 6.5,14.5 c 3.623,0.6958 8.856,-0.8629 10.75,3.25 z"
     id="path10" />
  <path
     style="fill:#0d5eaf"
     d="m 375,46 83,0 c 2.544,0.5025 2.007,4.156 4,5 l 4,0 8,-4 2.75,0.25 c 8.107,4.655 17.48,6.973 25,13 l 0.5,2.5 c 0.5734,0.4327 0.8954,1.272 1.75,1.25 l 6,0 c 5.788,-1.734 11.76,-2.823 18,-3 l 14.25,-4.75 c 5.071,2.38 9.995,-1.938 14.75,-3.25 2.838,-0.985 3.865,2.169 6,3 l 5,0 c 6.68,-3.031 17.82,-0.4987 20.25,-9.75 L 589,46 l 37,0 c 0.1306,1.398 0.1063,2.944 -1.25,3.75 -6.484,-3.789 -9.301,5.675 -14.5,7.5 -1.308,2.131 -4.672,2.461 -6.5,1 l -2.5,1 L 601,84 c 0.8043,1.486 1.262,3.187 2.75,4.25 L 604,91 c -3.63,5.403 -10.12,9.036 -13.25,14.75 L 590,106 l -40,0 c -3.003,-0.311 -6.437,0.8245 -9,-1 -8.264,0.7257 -15.22,-3.376 -22.25,-6.75 -5.288,-0.5059 -10.21,-1.8 -15.75,-1.25 -1.167,-0.7673 -2.356,-1.053 -3.75,-1.25 -0.4327,-0.5734 -1.272,-0.8954 -1.25,-1.75 1.999,-2.513 1.428,-7.774 -2.75,-7.25 L 494,86 c -6.784,-1.286 -6.803,7.253 -10.25,10.75 -1.394,0.1971 -2.583,0.4827 -3.75,1.25 -1.748,-0.3744 -3.253,0.3208 -4.25,1.75 -4.178,1.127 -5.636,7.692 -10.75,6.25 l -11,0 -2.75,-0.25 -4,-4 c -0.306,-2.032 -2.283,-3.031 -3.5,-4.5 L 432,97 c -3.118,2.063 -8.061,2.568 -9.25,6.75 L 420,106 339.25,106.25 339,166 l -35,0 c -1.482,0.4311 -2.356,-0.8704 -3.25,-1.75 -4.66,-1.328 -4.125,-6.992 -6.75,-10.25 l 0.25,-2.75 c 4.128,-2.616 9.418,-2.216 12.5,-6.5 -3.039,-4.533 -8.537,-6.94 -12,-11.5 L 292,133 c -1.937,1.006 -1.919,3.747 -2.25,5.75 l -5.5,1.5 c -1.451,1.864 -2.483,3.986 -4.5,5.5 -3.422,-0.3015 -6.871,2.519 -7,6 -2.596,3.516 -4.246,8.791 -1,12.5 L 272,166 219.25,165.75 219,77 c 2.474,-2.972 6.727,0.7419 10,0 l 6,-4 c 4.487,0.8055 8.89,1.892 13,4 7.453,-0.2371 14.07,3.406 21.75,1.75 2.756,-0.9923 4.575,-3.864 6.25,-5.75 l 5.75,3.75 2,-2 c 2.068,-6.936 3.737,-13.76 6.5,-20.5 4.124,-0.09585 9.02,-1.167 12.75,0.75 7.052,-0.3462 13.6,2.077 20.75,0.75 L 332,47 l 4,4 c 5.979,-2.144 12.99,-7.779 19.25,-3.25 L 358,49 c 6.127,0.5854 11.18,-2.536 17,-3 z"
     id="path12" />
  <path
     style="fill:#ffffff"
     d="m 219,77 0.25,88.75 52.75,0.25 -2.25,7.75 c -2.692,3.81 -4.68,8.055 -6.75,12.25 l 0.25,11.75 1.5,1.5 c -0.2822,5.381 4.72,8.38 8,12 -0.1057,2.527 0.9216,4.5 3,6 0.9237,3.391 4.726,5.348 5.25,8.75 l -61,0 c -0.5,0.1667 -0.8333,0.5 -1,1 l 0.25,118.8 41.75,0.25 13,1 8.25,6.75 22.5,4.5 3.5,8.5 2,3 3.5,1 8.25,-3.75 8.75,4.25 0.5,8.5 4,5 16.5,3.5 c 2.725,3.178 6.403,6.126 6.5,10.5 l 7.75,7.25 -86,0 c -4.493,-2.469 -7.036,-8.679 -12,-10 l -0.75,0.25 c 0.0816,3.442 -2.118,6.585 -4.25,8.75 l -1.75,-2.25 c -0.2858,-6.558 -7.462,-7.913 -11.5,-11.5 L 248,391.05 c -3.707,1.251 -1.103,6.01 -2.25,8.75 l -3.5,1 -13.25,-0.75 -19,-8 -1.75,0.25 c -3.068,2.931 -7.044,3.105 -11.25,2.75 -2.462,1.125 -4.833,2.397 -7,4 l -2,0 -5,-2 c -5.279,2.194 -10.37,5.01 -16,6 -6.089,-2.205 -10.39,-8.401 -17,-9 l -14,9 -1.75,-0.25 c -2.181,-7.711 -3.623,-15.41 -4.5,-23.5 l -1,-2 c -6.15,-1.524 -5.491,-9.057 -7,-14 l -2,-2 c -7.324,0.3973 -4.979,-8.991 -7.75,-13.25 l 0,-2 46.75,-0.25 L 159,227 c -0.1667,-0.5 -0.5,-0.8333 -1,-1 l -85,0 c -0.8493,-6.001 -5.027,-11.03 -6,-17 -0.02225,-0.8546 0.8173,-1.177 1.25,-1.75 4.329,-1.258 4.091,-7.449 8,-9 L 79,198 c 5.669,4.166 12.57,-0.2089 17.75,-3.25 2.47,-6.106 4.187,-12.29 5.25,-18.75 l 5,-10 51.75,-0.25 L 159,105 c 4.793,-2.385 10.11,-3.957 15.75,-2.75 1.572,1.799 2.566,4.67 5,5.5 4.005,-1.526 5.015,-6.068 8.5,-8.5 3.392,-1.486 6.255,1.467 9.5,0.5 l 2,-2 c 1.24,-3.945 6.26,-5.555 7.5,-9.5 l 1.5,-0.5 C 210.299,82.884 213.966,78.17 219,77 z"
     id="path14" />
  <path
     style="fill:#0d5eaf"
     d="m 159,105 -0.25,60.75 -51.75,0.25 6.25,-13.75 6.5,1.5 c 1.758,-2.746 5.815,-3.004 6.5,-6.5 5.034,-2.401 7.975,-7.537 6.75,-13.25 1.492,-6.287 -1.894,-10.93 -6,-15 l 0,-10 c -0.0223,-0.8546 0.8173,-1.177 1.25,-1.75 L 132,107 c 1.699,-1.356 3.908,-0.9847 6,-1 6.673,-3.561 14.36,2.441 21,-1 z"
     id="path16" />
  <path
     style="fill:#ffffff"
     d="m 420,106 -0.25,1.75 -7,9 -10.75,5.25 -3,0 c -9.204,-3.604 -19.37,-4.863 -29.75,-3.75 l -3,3 c -4.623,9.212 6.842,15.24 12,21.5 1.968,1.628 4.866,0.4638 6.5,2.5 0.3922,0.7697 0.3922,1.73 0,2.5 -2.228,0.7282 -4.768,0.7906 -6.5,2.5 -0.8815,1.844 0.6902,3.522 1.5,5 0.7603,4.104 3.17,9.378 8.25,8.75 2.77,2.182 7.592,1.042 8.25,-2.75 l 1.5,-1 5.25,5.75 -17,0 c -2.578,0.484 -4.704,-0.5208 -7,-1 -2.263,1.708 -5.308,0.765 -8,1 l -32,0 0.25,-59.75 L 420,106 z"
     id="path18" />
  <path
     style="fill:#ffffff"
     d="m 465,106 c -2.476,3.664 -7.251,1.152 -10.75,0.75 L 454,106 l 11,0 z"
     id="path20" />
  <path
     style="fill:#ffffff"
     d="m 590,106 c -0.354,6.322 -4.48,12.26 -9.75,15.75 -2.874,-3.213 -1.626,-8.287 -4.5,-11.5 L 560,108 c -2.563,-1.824 -5.997,-0.689 -9,-1 -0.5,-0.1667 -0.8333,-0.5 -1,-1 l 40,0 z"
     id="path22" />
  <path
     style="fill:#0d5eaf;fill-opacity:1"
     d="m 448,116 13.75,2.25 c 2.962,4.044 4.521,8.903 5.25,13.75 l -1.75,2.25 c -1.424,6.457 -8.14,7.894 -13.25,9.75 -3.863,1.111 -5.802,-2.574 -8.25,-4.75 -2.61,-0.1574 -5.824,-0.1817 -6.75,-3.25 0.4757,-4.792 2.697,-9.459 5.75,-13.25 0.9283,-2.42 2.119,-5.385 5,-6 L 448,116 z"
     id="path24" />
  <path
     style="fill:#ffffff"
     d="m 448,120 c 2.387,0.1383 5.027,-0.5567 7,1 2.846,-0.2369 6.497,1.416 6.25,4.75 2.679,2.79 1.975,7.165 -1,9.5 -0.2151,1.009 -0.6449,1.886 -1.5,2.5 L 455,139 c -5.387,3.869 -8.585,-4.343 -13.75,-4.25 L 448,120 z"
     id="path26" />
  <path
     style="fill:#0d5eaf;fill-opacity:1"
     d="m 531,147 c 5.539,-1.021 9.842,1.907 14.75,3.25 l 2,2 c 0.002,3.001 1.395,7.164 -1,9.5 -1.576,0.542 -2.775,1.456 -4.5,1.5 L 537,164 c -6.11,1.503 -9.994,-3.299 -13.75,-7.25 -1.785,-4.729 1.058,-10.51 6.75,-8.75 0.5,-0.1667 0.8333,-0.5 1,-1 z"
     id="path28" />
  <path
     style="fill:#ffffff"
     d="m 528,151 c 4.13,0.3614 8.904,-1.137 12.25,1.75 3.483,-0.43 4.575,3.266 3.5,6 L 537,161 531.25,159.75 526,154 l 2,-3 z"
     id="path30" />
  <path
     style="fill:#ffffff"
     d="m 339,166 0,1 0,7 c -4.326,0.646 -3.488,6.35 -7,8 L 306.25,168.75 304,166 l 35,0 z"
     id="path32" />
  <path
     style="fill:#4c57a7"
     d="m 371,166 c 0.1547,1.181 -1.337,1.019 -2,1 l -30,0 0,-1 32,0 z"
     id="path34" />
  <path
     style="fill:#4c57a7"
     d="m 403,166 c 0.5,0.1667 0.8333,0.5 1,1 l -15,0 c -0.9471,-0.1898 -2.944,0.592 -3,-1 l 17,0 z"
     id="path36" />
  <path
     style="fill:#0d5eaf"
     d="m 369,167 -3,6 c -0.2225,3.325 3.41,4.846 4.25,7.75 l 1.5,0.5 0.5,1.5 1.5,0.5 c 5.224,5.589 13.16,6.787 18,13 L 393,203 c 1.531,2.178 1.103,5.214 0.75,7.75 -1.314,0.1586 -2.157,1.08 -3,2 -4.107,0.1307 -7.986,-2.981 -11.5,-5 -1.942,-10.39 -8.748,-19.05 -16.5,-26.5 L 339,174 l 0,-7 30,0 z"
     id="path38" />
  <path
     style="fill:#0d5eaf"
     d="m 404,167 c 2.01,-0.4436 2.919,1.724 4.25,2.75 2.021,0.1413 3.716,0.5576 5.5,1.5 l 0.5,1.5 1.5,0.5 12,16 0,1.5 -6.75,2.25 -3.75,-5.25 c -0.617,-5.663 -6.072,-9.247 -11,-11 -1.823,-2.191 -4.194,-3.741 -7,-4 -2.821,-2.484 -6.406,-4.129 -10,-5 L 389,167 l 15,0 z"
     id="path40" />
  <path
     style="fill:#ffffff"
     d="m 339,195 0,11 c -0.8546,0.0223 -1.177,-0.8173 -1.75,-1.25 -0.926,-4.8 -5.377,-9.573 -2,-14.5 l 0.5,0 3.25,4.75 z"
     id="path42" />
  <path
     style="fill:#0d5eaf"
     d="m 339,206 0,-11 c 3.937,1.664 4.413,7.136 8.75,8.25 0.8434,0.92 1.686,1.841 3,2 2.897,3.015 6.926,4.001 11,4 2.769,2.874 5.437,6 7,9.5 L 364,219 c -9.714,1.958 -14.76,-8.626 -23.75,-9.25 -1.356,-0.8058 -1.381,-2.352 -1.25,-3.75 z"
     id="path44" />
  <path
     style="fill:#0d5eaf;fill-opacity:1"
     d="m 521,205 3.75,1.25 0.25,3.75 c 0.767,7.342 -10.97,11.27 -6.25,19.25 L 519,231 c 0.1306,1.398 0.1063,2.944 -1.25,3.75 -5.973,1.327 -11.88,-3.516 -12,-9.5 l -2.5,1 c -3.505,6.298 -9.828,2.306 -15.25,2.75 -0.8546,0.0223 -1.177,-0.8173 -1.75,-1.25 -2.254,-5.331 -1.587,-12.13 0,-17.5 1.314,-0.1586 2.157,-1.08 3,-2 L 502,207 c 3.652,-2.846 6.105,1.299 8.25,3.75 L 512,211 c 2.564,-2.611 7.112,-2.812 9,-6 z"
     id="path46" />
  <path
     style="fill:#0d5eaf"
     d="m 514,226 -4,0 c -0.244,-2.614 -2.443,-6.946 -5.75,-5.75 -2.706,1.954 -4.391,6.387 -8.25,5.75 l -6.75,-1.25 c 0.1312,-4.295 -1.587,-9.886 1,-13.5 L 500,211 c 3.247,-2.787 6.731,0.2421 7.25,3.75 L 510,216 c 3.875,-0.9532 6.602,-5.422 10.75,-4.75 l 0,1.5 c -3.62,3.639 -6.482,8.139 -6.75,13.25 z"
     id="path48" />
  <path
     style="fill:#0d5eaf;fill-opacity:1"
     d="m 21,222 c 4.817,-0.6852 9.334,2.361 12,6 -1.428,4.067 -3.093,10.73 -8.75,10.25 l -1,1 c -0.7848,4.381 5.725,6.375 5.75,10.75 -0.5634,4.546 0.7958,8.446 1.25,12.75 l 7,3 c 6.242,0.9423 6.561,8.961 9.75,13.25 l -0.25,1.75 C 46.0866,281.584 45.159,282.318 44,282 36.802,277.589 27.97,275.273 21.25,269.75 L 19,266 C 18.2533,259.172 15.775,252.48 10.25,247.75 6.787,241.862 2.636,236.4 0,230 l 1.25,-5.75 C 7.007,219.822 15.88,227.616 21,222 z"
     id="path50" />
  <path
     style="fill:#ffffff"
     d="m 39,272 0,3 -9.25,-4.75 c -2.024,-0.3087 -4.039,-0.973 -5.5,-2.5 l -4.5,-14.5 C 13.706,245.991 7.91,238.58 4,230 l 0.25,-1.75 C 7.28,226.02 12.682,226.604 16,228 l 8,-2 2.75,1.25 c 1.534,0.9449 1.524,2.985 1,4.5 -2.416,4.284 -8.097,2.771 -10.75,6.25 0.8292,4.557 5.093,7.586 7.75,11.25 1.578,4.928 1.061,10.24 1.5,15.5 l 12.5,5.5 L 39,272 z"
     id="path52" />
  <path
     style="fill:#4c57a7"
     d="m 73,226 85,0 c 0.5,0.1667 0.8333,0.5 1,1 l -87,0 c 0.1667,-0.5 0.5,-0.8333 1,-1 z"
     id="path54" />
  <path
     style="fill:#4c57a7"
     d="m 281,226 c 0.5,0.1667 0.8333,0.5 1,1 l -63,0 c 0.1667,-0.5 0.5,-0.8333 1,-1 l 61,0 z"
     id="path56" />
  <path
     style="fill:#ffffff"
     d="m 514,226 c 1.649,0.2377 1.009,2.652 0.75,3.75 -2.569,1.299 -5.7,-0.8008 -4.75,-3.75 l 4,0 z"
     id="path58" />
  <path
     style="fill:#0d5eaf"
     d="m 159,227 -0.25,118.8 -46.75,0.25 c -1.931,-1.931 -3.907,-0.2274 -6,0 l -6,0 c -1.128,-0.4277 -2.515,-1.584 -2.75,-2.75 l 5.5,-3.5 c -0.7632,-4.43 2.406,-6.994 6.25,-7.75 l 10.75,0.25 c 2.753,2.478 2.664,9.525 8,7.5 l 0.5,-1.5 c 0.5734,-0.4327 0.8954,-1.272 1.75,-1.25 l 5.75,2.75 2,-3 c -1.982,-5.494 0.9286,-12.46 -3,-17.5 L 122,319.05 111.25,315.8 c -1.694,-2.891 -2.276,-6.968 -5.25,-8.75 l -1.75,0.25 c -2.946,4.469 -3.163,10.07 -3.5,15.5 l -1,1 c -0.7697,0.3922 -1.73,0.3922 -2.5,0 L 96,321.05 c 0.0584,-3.731 -1.76,-6.902 -4.75,-9.25 -3.509,-7.267 -14.04,-10.81 -14.5,-19.5 -0.8818,-1.406 -1.526,-2.959 -3,-4 -3.291,-2.002 -7.643,-0.7303 -10.5,-3.5 -0.2215,-1.814 -1.898,-2.729 -3,-4 -0.3842,-1.66 -0.09161,-3.375 -1.25,-4.75 -0.6103,-3.303 -0.7909,-6.639 -2.25,-9.75 C 50.136,259.52 44.45,252.17 40,244.05 l 0.25,-0.75 c 4.5,0.983 8.85,2.969 13.75,2.75 4.687,-3.985 11.89,-7.222 10.25,-14.75 L 66,231.05 c 2.627,2.659 6.904,-0.6883 6,-4 l 87,0 z"
     id="path60" />
  <path
     style="fill:#0d5eaf"
     d="m 282,227 c 2.464,2.241 4.868,5.334 6.75,8.25 l 5.5,22.5 c 2.113,1.484 4.281,2.878 6,5 l 6.5,2.5 3,3 c 7.214,11.79 18.32,21.17 24.25,33.75 0.4003,2.176 -0.3826,3.894 -1.25,5.75 -5.207,3.755 -11.01,6.751 -17.75,6.25 -2.14,0.4664 -7.15,-0.0284 -3.75,-2.75 L 315,313 c 3.075,-3.375 7.707,-6.062 8,-11 -4.011,-5.236 -7.467,-13.02 -14.75,-14.25 -2.553,-3.199 -7.476,-1.418 -11,-1.5 l -1,1 c 0.031,5.168 -6.724,4.268 -9,8 -0.4162,3.406 -0.4162,7.094 0,10.5 l 2,2 c 8.551,-0.4881 8.439,9.718 14.5,13.5 l 0.25,3.75 -2.25,2.75 -2.5,0.5 -2.5,2.5 c -8.175,3.907 -17.13,10.1 -25.75,4.25 l -10.75,4.25 c -0.4518,2.233 -0.624,4.859 0.75,6.75 l -41.75,-0.25 -0.25,-118.8 63,0 z"
     id="path62" />
  <path
     style="fill:#0d5eaf;fill-opacity:1"
     d="m 39,275 0,-3 c 1.478,-0.0405 1.478,3.04 0,3 z"
     id="path64" />
  <path
     style="fill:#0d5eaf;fill-opacity:1"
     d="m 601,280 c 3.167,-0.2657 6.434,-0.3001 8.25,2.75 5.61,-0.9589 7.552,6.082 4,9.5 L 613,294 l 7.25,8.75 c 1.666,0.3376 3.129,1.72 3.75,3.25 4.792,5.511 8.5,11.69 12,18 -0.7737,3.201 -4.558,1.408 -6.75,2.25 -1.328,1.194 -1.812,2.91 -2.5,4.5 L 615,332 c -7.445,-3.417 -15.54,-4.295 -23.75,-5.25 -5.634,-3.077 -10.43,-7.507 -15.5,-11.5 -5.361,-1.597 -10.82,-3.255 -15.5,-6.5 -0.2758,-2.845 -0.9012,-6.275 0.75,-8.75 -0.0144,-2.829 -0.6429,-6.089 2.25,-7.75 8.336,-0.3484 15.75,-3.105 23.5,-5.5 1.913,-0.9786 0.5868,-3.521 2.5,-4.5 L 592,281 c 2.808,-0.5972 7.161,1.238 9,-1 z"
     id="path66" />
  <path
     style="fill:#ffffff"
     d="m 606,286 -14,0 0.25,-0.75 L 598,285 c 2.177,-1.531 5.214,-1.103 7.75,-0.75 L 606,286 z"
     id="path68" />
  <path
     style="fill:#0d5eaf"
     d="m 606,286 4.75,1.25 c 0.5456,2.369 -2.62,4.101 -1.75,6.75 2.061,5.559 6.946,9.969 11.75,13.25 l 9,13 0,1.5 -2.5,0.5 -1,1 c -2.386,6.618 -11.41,5.402 -16.25,2.75 l -15,-2 c -1.167,-0.7673 -2.356,-1.053 -3.75,-1.25 -6.549,-5.068 -12.69,-11.49 -21,-13 -1.478,-1.097 -3.156,-1.783 -5,-2 l -1,-1 c -0.4161,-3.073 -0.4161,-6.427 0,-9.5 l 1,-1 c 8.683,-1.789 17.03,-3.99 25.5,-6.5 0.1971,-1.394 0.4827,-2.583 1.25,-3.75 l 14,0 z"
     id="path70" />
  <path
     style="fill:#ffffff"
     d="m 301,289 9.75,3.25 8,10 0,1.5 -3,3 c -2.069,0.0671 -1.272,-3.685 -3.75,-2.75 -3.771,2.678 -6.13,7.347 -7.25,11.75 L 304,316 c -3.575,-3.634 -5.18,-11.07 -11.75,-11.25 l -1,-1 c -0.4156,-2.408 -0.4155,-5.092 0,-7.5 l 7.5,-3.5 L 301,289 z"
     id="path72" />
  <path
     style="fill:#0d5eaf;fill-opacity:1"
     d="m 388,291 4.75,0.25 c 4.441,3.912 2.49,11.48 -1.5,15 l -2.5,4.5 c -3.687,1.33 -7.515,4.95 -11.5,2.5 L 376,316 c 0.7393,4.44 -5.687,7.667 -9,5 -2.459,0.2483 -4.661,-0.048 -6.75,-1.25 -0.4327,-0.5734 -1.272,-0.8954 -1.25,-1.75 0.2675,-5.54 -3.857,-12.86 2.25,-16.75 l 15.5,8.5 0.5,-8.5 c 3.486,-3.066 5.348,-8.896 10.5,-9.5 L 388,291 z"
     id="path74" />
  <path
     style="fill:#0d5eaf"
     d="m 387,295 3.75,0.25 c 0.8414,3.237 0.1349,6.832 -2.5,9 -0.8393,2.879 -3.697,4.671 -6.25,5.75 -2.04,-1.422 -0.759,-5.427 -0.75,-7.75 L 387,295 z"
     id="path76" />
  <path
     style="fill:#0d5eaf"
     d="m 345,304 c 3.138,-0.9443 4.56,2.66 2.75,4.75 -2.078,0.2375 -5.052,1.034 -6.5,-1 L 345,304 z"
     id="path78" />
  <path
     style="fill:#0d5eaf"
     d="m 362,307 c 1.748,-0.3744 3.253,0.3208 4.25,1.75 l 6.5,3.5 c 0.7876,2.024 -0.7556,4.039 -2,5.5 -2.987,0.7391 -6.209,-0.2336 -8.5,-2 L 362,307 z"
     id="path80" />
  <path
     style="fill:#0d5eaf"
     d="m 344,346 -21,0 c -5.53,-3.62 -12.6,-1.933 -18,-6 -2.33,-0.5022 -3.207,1.958 -3.25,3.75 -3.073,0.4161 -6.427,0.4161 -9.5,0 L 292,343 l 0.25,-0.75 18.5,-6.5 c 0.3087,-2.024 0.973,-4.039 2.5,-5.5 L 328,325 l 2,0 10.75,10.25 c 0.4482,3.831 1.848,7.248 3.25,10.75 z"
     id="path82" />
  <path
     style="fill:#0d5eaf;fill-opacity:1"
     d="m 435,326 c 5.659,0.1627 9.058,5.77 13.75,8.25 l 1.5,7.5 c 5.175,1.982 12.3,4.881 9.5,12 -3.97,5.226 -11.09,2.643 -16.75,3.25 -1.167,-0.7673 -2.356,-1.053 -3.75,-1.25 l -2,-2 c -0.0262,-2.141 3.12,-3.374 2.5,-5.5 -2.798,-1.685 -5.181,-4.04 -7.5,-6.5 -0.4165,-4.406 -0.4164,-9.094 0,-13.5 L 435,326 z"
     id="path84" />
  <path
     style="fill:#0d5eaf"
     d="m 449,346 -4,0 c -3.815,-0.7242 -6.961,-3.481 -9.75,-6.25 -0.002,-3.001 -1.395,-7.164 1,-9.5 3.151,1.253 5.812,3.804 8.5,6 L 449,346 z"
     id="path86" />
  <path
     style="fill:#ffffff"
     d="m 269,339 c 5.72,0.9987 12.74,4.234 18.25,0.25 l 1.5,0 -3.5,4 c -0.2591,1.098 -0.8991,3.512 0.75,3.75 l 13,1 4,0 3.25,-2.75 5.75,1.75 5,0 c 2.03,0.7971 3.816,1.989 5.25,3.75 13.16,6.953 19.38,23.23 33.5,28.5 1.534,0.9449 1.524,2.985 1,4.5 -6.51,1.254 -12.54,-0.5154 -18.5,-2 l -4,-4 0,-1.5 c 2.963,-5.287 -3.093,-11.18 -8.25,-11.25 -3.582,-3.309 -7.475,-1.085 -11,1 l -2.75,-0.25 -3,-6 c -0.0437,-1.725 -0.958,-2.924 -1.5,-4.5 -5.915,-2.796 -12.71,-2.085 -18.75,-4.25 -4.502,0.2267 -9.5,-2.452 -11.25,-6.75 L 277,344 c -4.075,-1.055 -8.405,-0.9438 -12.75,-1.25 -0.9795,-2.957 4.143,-1.84 4.75,-3.75 z"
     id="path88" />
  <path
     style="fill:#0d5eaf;fill-opacity:1"
     d="m 94,346 -4,0 c 0.3079,-2.438 3.692,-2.438 4,0 z"
     id="path90" />
  <path
     style="fill:#ffffff"
     d="m 90,346 4,0 1.75,2.25 c -1.537,2.228 0.1362,5.567 -1.75,7.75 1.301,5.695 -3.008,12.2 -9,12 -1.167,0.5039 -2.356,1.634 -3.75,0.75 C 81.18659,366.327 80.5717,364.22 80,362 l 5.75,-10.25 c 0.8738,-2.199 1.836,-4.817 4.25,-5.75 z"
     id="path92" />
  <path
     style="fill:#ffffff"
     d="m 106,346 c -0.9991,1.935 -5.327,3.17 -6,0 l 6,0 z"
     id="path94" />
  <path
     style="fill:#ffffff"
     d="m 344,346 c 2.506,2.15 5.5,4.795 8.75,6.25 3.177,5.021 8.742,4.961 14,5 L 378,366 c 5.268,0.5503 11.2,-1.173 16,1 l 2,0 2,-1 c 1.375,1.158 3.09,0.8658 4.75,1.25 L 403,369 c -1.138,5.981 5.425,8.641 8,13 -2.87,3.027 -2.652,8.408 -1,12 -0.5441,4.353 1.2,8.036 2,12 l -9,0 c -2.008,-3.495 -2.977,-8.242 -7.25,-9.75 L 376,396 c -4.053,-2.272 -9.3,-0.1654 -13.75,-1.25 L 358,389 l 3.75,-3.75 -2,-8 -1,-1 c -4.202,-0.3157 -6.779,-4.042 -10.5,-5.5 -0.8551,-0.6139 -1.285,-1.491 -1.5,-2.5 -7.485,-6.858 -13.87,-15.5 -22.5,-20.5 -0.4327,-0.5734 -1.272,-0.8954 -1.25,-1.75 l 21,0 z"
     id="path96" />
  <path
     style="fill:#ffffff"
     d="m 449,346 c 2.981,-0.2549 7.893,2.125 6.75,5.75 -2.897,3.123 -7.63,2.351 -11.5,2 l -1,-1 2.75,-3.75 -1,-3 4,0 z"
     id="path98" />
  <path
     style="fill:#0d5eaf;fill-opacity:1"
     d="m 574,370 c 7.029,-2.721 10.44,8.366 17,4 l 2.75,2.25 c -0.8785,4.463 -1.808,9.406 -3.75,13.75 -0.6705,6.387 1.03,12.09 2,18 -2.89,3.838 -4.615,8.305 -6.25,12.75 -4.217,2.673 -8.347,5.946 -13.75,5.25 -2.07,-1.35 -4.457,-3.297 -5.25,-5.75 -5.14,-2.941 -5.566,-13.33 2,-12.5 l 4,-2 L 573,399 c -3.683,-6.735 -10.04,-11.82 -13,-19 0.3625,-7.779 10.08,-6.02 14,-10 z"
     id="path100" />
  <path
     style="fill:#ffffff"
     d="m 588,406 -12,0 c 3.005,-5.499 0.1155,-11.81 -4.75,-15.25 -1.85,-3.299 -4.173,-6.305 -7,-9 -0.4068,-1.088 -0.4069,-2.412 0,-3.5 L 578,374 c 3.171,2.466 6.496,5.225 10.75,5.25 L 589,382 c -1.567,3.073 -2.375,6.364 -2,10 -2.533,4.47 0.4668,9.491 1,14 z"
     id="path102" />
  <path
     style="fill:#0d5eaf;fill-opacity:1"
     d="m 90,377 c 5.372,3.448 4.233,11.18 8.25,15.75 l 2.5,0.5 c 0.4327,0.5734 1.272,0.8954 1.25,1.75 -1.765,4.316 -0.4997,13.07 -8,11 -0.5,0.1667 -0.8333,0.5 -1,1 l 6.25,10.75 c 2.982,3.13 6.857,6.067 7.75,10.25 -1.967,3.93 -7.054,4.138 -10,7 l -3,0 -7,-6 -14.75,-1.25 c -1.554,-3.802 1.854,-7.273 -0.5,-10.5 -0.5833,-0.5 -1.917,-0.25 -1.75,0.75 1.767,5.27 -4.843,6.339 -8,4 -2.176,0.4003 -3.894,-0.3826 -5.75,-1.25 -1.032,-6.88 2.156,-12.92 3,-19.5 4.726,-2.136 8.981,-5.106 14.5,-4.5 3.872,-4.016 1.483,-10.52 5.5,-14.5 4.429,4.155 6.405,-3.479 10.5,-4.5 L 90,377 z"
     id="path104" />
  <path
     style="fill:#ffffff"
     d="m 89,383 c 0.8546,-0.0222 1.177,0.8173 1.75,1.25 l 2.5,10.5 1,1 c 3.553,-0.7091 3.651,4.399 1.5,6 -1.088,0.4068 -2.412,0.4068 -3.5,0 -3.771,-4.686 -2.795,-11.26 -5,-16.5 L 89,383 z"
     id="path106" />
  <path
     style="fill:#ffffff"
     d="m 83,406 -12,0 c -1.18,-0.8367 -1.82,-0.8367 -3,0 l -6,0 c 1.735,-3.162 5.248,-5.62 9,-5 l 5.75,-1.25 c 1.79,-1.763 2.593,-4.212 2.25,-6.75 l 1.25,-2.75 c 3.737,1.665 4.977,7.36 2.75,10.75 l 0,5 z"
     id="path108" />
  <path
     style="fill:#ffffff"
     d="m 88,405 c -1.885,0.1397 0.1398,-1.885 0,0 z"
     id="path110" />
  <path
     style="fill:#ffffff"
     d="m 88,405 c 1.885,-0.1397 -0.1398,1.885 0,0 z"
     id="path112" />
  <path
     style="fill:#0d5eaf"
     d="m 68,406 0,1 c -2.675,3.318 0.8646,8.72 -2.25,11.75 -2.021,0.9821 -3.716,-0.3505 -5.5,-1 -1.095,-4.187 1.141,-7.87 1.75,-11.75 l 6,0 z"
     id="path114" />
  <path
     style="fill:#0d5eaf"
     d="m 83,406 c -0.3185,1.159 0.416,2.087 1.25,2.75 l 5.5,1.5 12,16 0,1.5 L 96,431 c -3.012,-0.9533 -5.001,-3.562 -7.25,-5.75 L 76.25,424.75 76,422 l 1,-2 -6,-14 12,0 z"
     id="path116" />
  <path
     style="fill:#0d5eaf"
     d="m 280,406 86,0 1.75,0.25 c 9.886,5.28 22.29,6.166 30.25,14.75 l -0.25,3.75 -4.75,7.25 0,6 1,2 1,12 c 0.0153,2.092 -0.3556,4.301 1,6 -0.3161,2.956 0.9179,5.451 2,8 l -14,0 -1,0 c -2.709,-2.475 -7.331,0.6705 -9.75,-2.25 l -6.5,-11.5 -9.5,-4.5 c -0.8677,-2.37 1.652,-4.188 0.75,-6.75 -0.1798,-0.951 -1.049,-1.82 -2,-2 l -9.75,0.25 -8.25,5.75 -13.75,1.25 c -5.766,4.852 -13.13,5.751 -20.25,6.75 -0.8546,-0.0222 -1.177,0.8173 -1.75,1.25 -0.4156,2.408 -0.4155,5.092 0,7.5 1.394,0.1971 2.583,0.4827 3.75,1.25 1.533,-1.25 3.467,-1.25 5,0 2.668,-0.6342 4.393,0.4778 5,3 l -170,0 c -1.871,-6.255 -11.72,-4.573 -15,-10 l 0.25,-6.75 6.5,-0.5 c 5.212,-5.579 11.65,-9.351 14.5,-16.5 1.009,-0.2151 1.886,-0.6449 2.5,-1.5 l 0.5,-10.5 L 162,420 c 2.261,0.9291 4.442,2.088 7,2 7.917,5.634 15.34,-2.779 18.25,-9.75 3.941,-3.744 9.156,-6.018 14.75,-5.25 1.973,-1.557 4.613,-0.8617 7,-1 0.8546,-0.0222 1.177,0.8173 1.75,1.25 1.582,5.982 9.959,4.37 11.5,10.5 l 2,2 c 6.21,1.778 12.2,3.824 18.75,4.25 12.36,5.563 25.93,9.372 35.25,20.75 l 8,5 c 4.073,0.4164 8.427,0.4164 12.5,0 l 2,-6.5 c -2.156,-1.752 -4.764,-3.031 -7.5,-3.5 l -1,-1.5 c 0.6139,-0.8551 1.491,-1.285 2.5,-1.5 9.52,-2.746 23.94,5.327 30,-6 -0.4512,-1.963 -1.919,-3.614 -3.5,-5 l -0.5,-2.5 C 314.665,418.848 308.01,415.675 300,417 l -14.75,-3.25 c -2.252,-2.239 -4.67,-4.714 -5.25,-7.75 z"
     id="path118" />
  <path
     style="fill:#0d5eaf"
     d="m 412,406 3.25,12.75 c 5.231,4.526 11.64,7.138 17.75,10.25 l 11.75,0.25 1,11.5 L 441,446 c -3.982,0.6448 -6.063,-3.379 -9.25,-4.75 l -4.5,2.5 c -3.189,-1.951 -3.493,-5.132 -3.5,-8.5 l -2,-2 -5.5,-2.5 -2,-2 L 403,406 l 9,0 z"
     id="path120" />
  <path
     style="fill:#0d5eaf"
     d="m 588,406 c -0.492,3.866 -3.881,6.797 -4.25,10.75 -2.775,3.081 -6.486,5.631 -10.75,5.25 -1.53,-0.621 -2.912,-2.084 -3.25,-3.75 -4.357,-2.042 -3.196,-9.071 2.25,-7.25 l 2.75,-1.25 c 1.356,-0.8058 1.381,-2.352 1.25,-3.75 l 12,0 z"
     id="path122" />
  <path
     style="fill:#0d5eaf;fill-opacity:1"
     d="m 462,442 c 10.15,-3.312 8.274,12.93 17.75,11.25 l 3,2 c 0.5044,8.098 4.121,15.08 3.5,23.5 5.808,1.31 11.74,4.885 17.75,2.25 l 2.75,1.25 c 2.225,4.08 6.39,8.924 3.25,13.75 0.5668,2.083 -0.7902,3.531 -2.25,4.75 -2.408,0.4155 -5.092,0.4156 -7.5,0 l -23,-19 -0.5,-4.5 -10.5,-11.5 c -0.9732,-3.125 -4.105,-5.003 -7,-6 l -2,-2 L 456,446 c 0.6726,-2.99 5.001,-1.468 6,-4 z"
     id="path124" />
  <path
     style="fill:#0d5eaf;fill-opacity:1"
     d="m 93,445 c 4.112,1.823 3.72,7.249 7.25,9.75 3.709,0.3741 7.11,1.021 10.5,2.5 L 119,471 c -1.815,3.607 -6.373,3.922 -9.75,5.25 -2.157,2.242 0.1747,6.628 -3.25,7.75 L 97.25,481.75 82,462 82.25,452.25 C 84.869,448.363 90.083,447.889 93,445 z"
     id="path126" />
  <path
     style="fill:#0d5eaf"
     d="m 481,466 -9,0 c -0.8546,0.0222 -1.177,-0.8173 -1.75,-1.25 -1.773,-3.844 -5.688,-6.646 -9,-9 -1.504,-2.529 -1.573,-5.612 -1,-8.5 L 463,446 c 5.096,-0.6389 5.599,5.748 8.75,8.25 l 0.5,1.5 c 2.013,1.287 4.194,1.21 6.5,1.5 L 481,466 z"
     id="path128" />
  <path
     style="fill:#0d5eaf"
     d="m 112,466 -22,0 -0.75,-0.25 c -2.01,-3.573 -5.848,-6.766 -4,-11.5 2.152,-1.575 4.299,-3.159 6.75,-4.25 0.8546,-0.0222 1.177,0.8173 1.75,1.25 0.2972,2.527 1.465,4.841 3.5,6.5 4.466,1.356 11.19,0.3834 13,6 L 112,466 z"
     id="path130" />
  <path
     style="fill:#0d5eaf;fill-opacity:1"
     d="m 648,461 c 5.372,-0.2855 10.15,1.474 15,3 l 11.75,0.25 2,2 c 0.2808,4.411 4.33,7.859 3,12.5 L 677,479 c -8.962,-0.9912 -14.86,7.223 -23,9 -6.559,-0.9175 -11.94,-9.711 -19,-6 l -3,1 c -1.398,0.1306 -2.944,0.1062 -3.75,-1.25 -0.9554,-4.095 -0.046,-8.031 2,-11.5 5.89,-2.685 11.03,-7.487 17.5,-8.5 L 648,461 z"
     id="path132" />
  <path
     style="fill:#101f8a"
     d="m 655,466 -8,0 0.25,-0.75 c 2.408,-0.4156 5.092,-0.4155 7.5,0 L 655,466 z"
     id="path134" />
  <path
     style="fill:#ffffff"
     d="m 112,466 1.75,4.75 c -2.518,1.039 -4.836,1.964 -7.5,2.5 -0.9424,1.784 -1.359,3.479 -1.5,5.5 -0.5734,0.4327 -0.8954,1.272 -1.75,1.25 -6.605,-2.013 -9.154,-8.907 -13,-14 l 22,0 z"
     id="path136" />
  <path
     style="fill:#ffffff"
     d="m 316,466 c 0.8832,1.375 1.476,3.09 0.75,4.75 -1.258,0.3742 -2.752,0.1052 -3.5,1.5 L 314,477 c -0.2545,4.9 -0.7692,12.74 5.75,13.25 l 11.5,7.5 1.5,0 c 3.281,-2.723 -0.5427,-6.443 0.25,-9.75 0.3376,-2.467 5.182,-3.118 5.25,-0.25 l -0.5,4 c -1.481,2.172 -0.6568,5.486 -0.5,8 1.28,2.045 3.308,2.397 5.5,2.5 1.892,2.003 4.433,3.798 5,6.5 -4.073,1.592 -8.347,1.982 -12.75,2.25 l -9.75,4.25 -3.5,7.5 c -2.013,0.9935 -4.194,1.842 -6.5,1 -0.6178,-2.95 -4.168,-4.087 -5.25,-6.75 2.586,-2.424 5.443,-4.796 5,-9 L 312.75,505.25 296,497 l -12,1 -5.75,0.25 c -0.4327,0.5734 -1.272,0.8954 -1.25,1.75 l 2.25,14.75 c 3.242,2.442 2.257,7.058 5.5,9.5 L 285,526 180,526 c -0.5699,-2.383 2.554,-3.015 3,-5 -0.0153,-2.092 0.3556,-4.301 -1,-6 0.1751,-1.99 0.1736,-4.107 -1.75,-5.25 -0.5807,-2.926 -1.843,-5.832 -4,-8 -3.13,-7.395 -10.7,-11.26 -16,-17 l -0.5,-1.5 -4,-4 -2,-1 c -1.576,-0.8318 -2.775,1.845 -4.5,0.5 -0.3299,-4.529 -0.9317,-8.848 -3.25,-12.75 l 170,0 z"
     id="path138" />
  <path
     style="fill:#ffffff"
     d="m 398,466 0,2 c 1.872,3.41 0.8771,7.95 0.75,11.75 l -1,1 c -9.318,3.293 -10.08,-7.674 -13.5,-13 L 384,466 l 14,0 z"
     id="path140" />
  <path
     style="fill:#ffffff"
     d="m 481,466 1,5 c 1.358,1.515 1.482,4.494 -1,5 -1.786,-0.992 -3.711,-2.676 -4.25,-4.75 L 472,466 l 9,0 z"
     id="path142" />
  <path
     style="fill:#ffffff"
     d="m 647,466 8,0 c 3.46,0.2295 6.834,0.7552 10,2 l 1.75,-0.25 c 4.282,-3.219 9.545,2.666 8,7 -7.711,0.6747 -13.54,6.276 -20,10 L 640,477 c -2.516,0.1822 -5.002,0.8395 -7.25,1.75 l -1.5,-1 c 0.6759,-6.706 9.197,-8.221 14,-11.5 L 647,466 z"
     id="path144" />
  <path
     style="fill:#0d5eaf;fill-opacity:1"
     d="m 608,477 4.75,0.25 c 0.3922,0.7697 0.3922,1.73 0,2.5 l -14,16 c -5.622,2.888 -12.07,3.591 -16.75,8.25 l -8.75,-0.25 c -0.4327,-0.5734 -1.272,-0.8954 -1.25,-1.75 -0.2383,-7.765 4.796,-13.88 9.25,-19.75 l 2,-1 c 4.235,-0.4669 8.856,-0.6175 12.75,0.75 L 607.75,477.75 608,477 z"
     id="path146" />
  <path
     style="fill:#0d5eaf;fill-opacity:1"
     d="m 423,480 c 4.08,0.002 11.74,-1.35 11,5 -2.582,5.638 -8.117,9.452 -11.25,14.75 l -2,1 c -1.865,-0.4911 -2.984,-2.619 -3,-4.5 -1.452,-1.709 -1.797,-3.819 -2,-6 -1.742,-1.748 -0.8184,-5.114 2,-4.5 1.608,-1.685 2.216,-4.63 5,-5 L 423,480 z"
     id="path148" />
  <path
     style="fill:#ffffff"
     d="m 486,483 2,0 c 1.233,0.7117 2.456,1.328 4,1 3.41,2.185 7.95,0.2262 11.75,1.25 2.757,2.881 5.072,8.008 2,11.5 L 503,498 486,483 z"
     id="path150" />
  <path
     style="fill:#ffffff"
     d="m 603,484 c -0.1398,-1.885 1.885,0.1397 0,0 z"
     id="path152" />
  <path
     style="fill:#ffffff"
     d="m 424,484 5.75,0.25 c -0.5327,3.596 -5.028,5.056 -6,8.5 l -2,2 C 419.99,494.6589 419.8,492.379 420,491 l 4,-7 z"
     id="path154" />
  <path
     style="fill:#ffffff"
     d="m 603,484 -0.25,1.75 -7,8 c -6.204,0.7973 -11.8,3.424 -16.75,7.25 -1.159,0.3185 -2.087,-0.416 -2.75,-1.25 -0.2957,-5.741 4.258,-10.35 8,-14.5 5.417,-1.329 10.99,2.963 15.75,-1.25 l 3,0 z"
     id="path156" />
  <path
     style="fill:#0d5eaf;fill-opacity:1"
     d="m 479,499 1.75,0.25 6,6 1,8.5 c -3.909,4.502 -9.572,7.802 -15.5,7 L 470,517 c 1.351,-6.602 4.499,-12.79 9,-18 z"
     id="path158" />
  <path
     style="fill:#0d5eaf;fill-opacity:1"
     d="m 513,500 2,0 c 2.781,2.049 6.59,0.3196 9.75,1.25 1.764,2.559 6.046,4.331 6,7.5 l -2,2 -15.5,4 -1,-1 C 512.1795,509.3 511.047,504.053 513,500 z"
     id="path160" />
  <path
     style="fill:#0d5eaf;fill-opacity:1"
     d="m 430,502 c 2.951,-0.6122 5.354,2.296 6.25,4.75 5.236,3.263 5.168,11.53 1,15.5 -0.1586,1.314 -1.08,2.157 -2,3 l -0.5,1.5 -2.75,1.25 -6.75,-2.25 c -0.5194,-4.711 0.3499,-9.694 -2.25,-13.75 l 7,-10 z"
     id="path162" />
  <path
     style="fill:#ffffff"
     d="m 480,504 c 3.129,1.478 4.792,5.425 3.75,8.75 -2.397,2.701 -6.118,4.18 -9.5,4 L 474,515 c 1.948,-3.778 2.816,-7.911 6,-11 z"
     id="path164" />
  <path
     style="fill:#ffffff"
     d="m 516,505 6,0 c 1.449,-0.4172 3.612,1.213 2.75,2.75 L 517,510 c -3.06,-0.6794 -1.193,-3.148 -1,-5 z"
     id="path166" />
  <path
     style="fill:#ffffff"
     d="m 430,508 c 3.785,-0.5269 6.604,3.777 7,7 -1.718,3.113 -3.03,6.977 -6,9 -0.8546,0.0222 -1.177,-0.8173 -1.75,-1.25 L 429,517 c -1.446,-2.104 -1.743,-5.684 0.75,-7.25 L 430,508 z"
     id="path168" />
  <path
     style="fill:#0d5eaf"
     d="m 180,526 105,0 0.75,0.25 c 1.431,5.202 7.532,10.17 4.25,15.75 l 0.25,3.75 c 1.59,0.6881 3.306,1.172 4.5,2.5 5.538,8.908 6.912,19.35 11.25,28.75 -0.088,2.558 1.071,4.739 2,7 l 0,2 -24,0 -1.25,-5.75 L 280,579 c -1.448,1.085 -3.191,1.14 -5,1 -2.279,1.976 -5.721,0.0242 -8,2 -2.459,-0.2483 -4.661,0.048 -6.75,1.25 L 259,586 l -18,0 c -0.8546,0.0222 -1.177,-0.8173 -1.75,-1.25 l -4.5,-13.5 c -2.636,-3.177 -6.925,-1.837 -10.5,-2.5 -0.2758,-2.845 -0.9013,-6.275 0.75,-8.75 -1.32,-4.488 -4.843,-7.233 -9,-9 -5.236,2.352 -11.01,3.711 -15.75,7.25 L 200,569 l 0,9 c -0.4739,2.607 1.389,6.926 -2,8 l -3,0 c 0.1721,-2.92 -1.61,-5.511 -3.25,-7.75 -3.512,-0.7193 -6.792,-1.451 -10.5,-1.5 L 181,573 c 1.815,-3.093 0.9159,-7.272 0.75,-10.75 l -9.5,-13.5 c -0.4165,-4.406 -0.4165,-9.094 0,-13.5 L 180,526 z"
     id="path170" />
  <path
     style="fill:#0d5eaf;fill-opacity:1"
     d="m 650,532 c 5.909,-1.159 12.86,3.583 12,10 1.158,1.375 0.8657,3.09 1.25,4.75 2.907,1.277 5.931,2.366 8,5 2.624,0.7593 4.697,2.411 6.5,4.5 0.3506,3.87 1.123,8.603 -2,11.5 L 667,568 c -1.867,1.231 -5.177,1.846 -6.75,-0.25 -0.9496,-4.512 2.651,-9.419 -0.25,-13.75 l -0.25,-1.75 -9,-6 -1.5,-0.5 L 645,536 c 0.4908,-2.751 3.897,-2.473 5,-4 z"
     id="path172" />
  <path
     style="fill:#0d5eaf;fill-opacity:1"
     d="m 437,533 c 3.331,-0.4534 6.25,1.371 8.75,3.25 -0.1312,4.295 1.587,9.886 -1,13.5 -5.331,0.973 -10.43,-0.2422 -15.5,-1 -4.852,-7.238 4.176,-11.14 7.75,-15.75 z"
     id="path174" />
  <path
     style="fill:#0d5eaf;fill-opacity:1"
     d="m 533,536 c 4.191,-0.7588 6.702,3.126 9.75,5.25 L 543,556 c -1.667,5.103 -4.383,10.85 -9.75,13.25 L 531,571 l -4,0 c -3.682,-2.198 -5.059,-6.922 -6.25,-10.75 l -4.5,-8.5 L 516,549 c -0.0222,-0.8546 0.8173,-1.177 1.25,-1.75 l 2.5,-0.5 c 4.072,-3.756 8.181,-7.452 13,-10 L 533,536 z"
     id="path176" />
  <path
     style="fill:#0d5eaf"
     d="m 650,536 c 2.848,-0.2739 5.763,0.0931 7.75,2.25 l 1,8.5 L 658,547 c -4.225,-2.211 -8.383,-5.772 -8,-11 z"
     id="path178" />
  <path
     style="fill:#0d5eaf"
     d="m 439,537 c 1.346,0.9122 3.594,1.07 4,3 l -1.25,5.75 c -3.029,-0.1228 -8.231,1.842 -9.75,-1.75 1.7,-2.371 3.935,-5.174 6.75,-6.25 L 439,537 z"
     id="path180" />
  <path
     style="fill:#0d5eaf"
     d="m 534,540 c 2.239,-0.3862 3.216,2.124 4.75,3.25 -0.0629,5.221 1.669,11.54 -1.5,16 0.0272,2.332 -1.681,4.499 -4,5 -1.447,1.489 -2.857,3.447 -5.25,2.75 L 527.25,566.75 521,551 c 3.212,-4.769 9.265,-7.075 13,-11 z"
     id="path182" />
  <path
     style="fill:#0d5eaf;fill-opacity:1"
     d="m 504,543 9.75,1.25 -1,16.5 c -1.659,2.035 -3.973,3.203 -6.5,3.5 -3.483,2.458 -7.526,1.756 -11,-0.5 l -2,-2 c -0.3534,-2.536 -0.7814,-5.573 0.75,-7.75 -0.0896,-5.12 4.011,-9.458 9,-10 0.5,-0.1667 0.8333,-0.5 1,-1 z"
     id="path184" />
  <path
     style="fill:#0d5eaf"
     d="m 503,547 6.75,0.25 c 0.7129,3.926 0.2669,7.905 -1,11.5 -2.239,1.64 -4.83,3.422 -7.75,3.25 -3.91,-0.5484 -5.319,-5.193 -3.25,-8.25 0.0346,-2.768 2.482,-5.151 5,-6 L 503,547 z"
     id="path186" />
  <path
     style="fill:#0d5eaf"
     d="m 664,552 9.75,5.25 c 0.1971,1.394 0.4827,2.583 1.25,3.75 l -1.25,2.75 c -3.045,0.8651 -6.18,1.918 -9.5,1 -1.019,-3.661 4.043,-8.096 0,-11 L 664,552 z"
     id="path188" />
  <path
     style="fill:#0d5eaf;fill-opacity:1"
     d="m 454,553 c 1.99,-0.175 4.107,-0.1736 5.25,1.75 4.759,1.685 5.205,7.572 7.75,11.25 -1.33,4.384 -5.761,6.326 -9,9 -1.159,0.3185 -2.087,-0.416 -2.75,-1.25 L 450,558 c 0.9091,-1.65 1.394,-4.064 3.75,-4.25 L 454,553 z"
     id="path190" />
  <path
     style="fill:#0d5eaf"
     d="m 455,557 c 4.747,0.7426 10.48,9.324 4,12 l -1.75,-0.25 c -0.8587,-3.379 -1.887,-6.57 -3.25,-9.75 l 1,-2 z"
     id="path192" />
  <path
     style="fill:#0d5eaf;fill-opacity:1"
     d="m 579,562 c 2.887,-0.7051 5.309,2.074 5.25,4.75 2.691,1.727 1.742,5.362 1.5,8 l -2,2 -4,2 c -7.185,1.12 -11.4,8.729 -18.75,9.25 -1.621,1.165 -3.81,1.326 -5.75,0.75 -1.553,-2.022 -2.636,-4.871 -2,-7.5 l 7.5,-3.5 c 1.612,-2.733 3.686,-5.261 7,-6 L 579,562 z"
     id="path194" />
  <path
     style="fill:#0d5eaf"
     d="m 578,567 2.75,0.25 c 0.6495,1.784 1.982,3.479 1,5.5 -3.17,2.367 -6.936,3.771 -10.5,5.5 -2.302,2.266 -4.815,4.516 -8,5 -1.709,1.153 -3.819,2.422 -6,1.5 l 0,-1.5 6.5,-2.5 1,-1 c 1.242,-4.98 7.91,-5.085 9.5,-9.5 l 1,-1 c 1.195,-0.2516 2.521,-0.9243 2.75,-2.25 z"
     id="path196" />
  <path
     style="fill:#0d5eaf;fill-opacity:1"
     d="m 687,567 16,0 c 3.043,1.113 5.516,4.613 5.75,7.75 l -2,2 c -6.317,2.316 -14.8,2.954 -18,10 l -2,2 -12.5,0.5 -2,2 L 672,593 c 1.485,5.251 -5.251,7.857 -8.75,5.75 l -0.5,-2.5 C 659.76,592.158 659.988,584.51 665,582 l 2.75,-2.25 0.5,-1.5 c 5.289,-4.962 11.48,-9.02 18.5,-10.5 L 687,567 z"
     id="path198" />
  <path
     style="fill:#0d5eaf"
     d="m 671,586 -5,0 c 0.5328,-1.344 2.482,-1.595 3.75,-2.25 1.328,-1.194 1.812,-2.91 2.5,-4.5 l 11,-7 c 5.574,-1.007 10.71,-3.024 16.75,-2.25 l 3.75,2.25 c -4.108,5.336 -14.28,3.178 -17,10.5 l -2,2 L 671,586 z"
     id="path200" />
  <path
     style="fill:#0d5eaf;fill-opacity:1"
     d="m 448,573 c 2.464,-0.192 4.617,2.609 4,5 1.762,2.325 1.072,5.406 -0.25,7.75 l -6.5,4.5 1.5,10.5 c -3.155,2.716 -7.649,2.265 -11.75,2.25 l -12,1 c -0.8546,0.0222 -1.177,-0.8173 -1.75,-1.25 -0.5976,-5.37 -0.9342,-11.41 3,-15.5 3.009,-0.821 6.016,-0.0293 8.75,0.75 1.783,-2.311 4.871,-1.301 6.75,-3.25 0.564,-2.377 -0.9797,-4.577 -1.75,-6.75 l 2.25,-2.75 7.5,-1.5 L 448,573 z"
     id="path202" />
  <path
     style="fill:#0d5eaf"
     d="m 443,578 2,0 c 6.086,-1.06 4.224,7.006 0,8 l -0.75,-0.25 c -0.5517,-2.612 -1.778,-4.875 -1.25,-7.75 z"
     id="path204" />
  <path
     style="fill:#0d5eaf;fill-opacity:1"
     d="m 511,583 2,0 12.75,7.25 c 0.4155,2.408 0.4156,5.092 0,7.5 L 520,605 c -5.433,-1.452 -7.579,-7.844 -11.75,-11.25 0.0744,-3.197 -2.006,-9.089 2.5,-10 L 511,583 z"
     id="path206" />
  <path
     style="fill:#ffffff"
     d="m 198,586 c -0.2127,2.142 -2.787,2.142 -3,0 l 3,0 z"
     id="path208" />
  <path
     style="fill:#ffffff"
     d="m 259,586 -8,26 3,6 -0.25,3.75 -1.5,0 -10,-6 L 244,613 c -0.482,-7.314 3.878,-15.93 -2,-22 l -1,-5 18,0 z"
     id="path210" />
  <path
     style="fill:#ffffff"
     d="m 308,586 c 1,-0.1667 1.25,1.167 0.75,1.75 l -3.5,0.5 c -1.728,1.767 -3.175,4.601 -1.25,6.75 l 0,9 1.25,2.75 c 3.243,3.828 8.537,6.684 9,12 l 1.5,3 c -1.183,1.822 -3.711,1.365 -5.5,1 -2.614,-2.292 -1.886,-6.208 -4.5,-8.5 -2.784,-0.931 -5.48,-1.373 -8.5,-1.5 -4.3,-5.445 -5.571,-13.47 -12,-17 L 284,586 l 24,0 z"
     id="path212" />
  <path
     style="fill:#ffffff"
     d="m 666,586 5,0 -4.25,8.75 -2.75,-4.75 2,-4 z"
     id="path214" />
  <path
     style="fill:#ffffff"
     d="m 512,587 c 4.017,1.214 8.765,3.029 11,7 -0.7993,1.759 -1.608,3.512 -3.25,4.75 -0.7697,0.3922 -1.73,0.3922 -2.5,0 l -5,-6 L 512,587 z"
     id="path216" />
  <path
     style="fill:#ffffff"
     d="m 427,589 5,4 2.75,-0.25 c 1.406,-2.053 2.794,-5.091 6,-3.5 1.926,2.515 0.5926,5.945 2,8.5 l -1,1 L 438,599 c -3.159,2.394 -7.841,-0.3938 -11,2 l -0.75,-0.25 c -2.018,-2.473 -2.184,-7.815 0.5,-10 L 427,589 z"
     id="path218" />
  <path
     style="fill:#0d5eaf;fill-opacity:1"
     d="m 615,596 c 4.76,2.419 9.524,6.872 11,12 -0.9423,4.641 -6.043,3.89 -9.75,4.25 -2.435,2.829 -1.447,8.045 -6.25,8.75 -2.111,-0.9658 -4.758,-2.118 -5.25,-4.75 -2.188,-2.249 -4.797,-4.238 -5.75,-7.25 1.751,-2.638 2.12,-6.52 5.25,-7.75 l 7.5,4.5 L 615,596 z"
     id="path220" />
  <path
     style="fill:#ffffff"
     d="m 616,602 c 2.431,0.0952 5.778,3.107 4.75,5.75 -1.414,0.4118 -3.086,0.4118 -4.5,0 L 616,602 z"
     id="path222" />
  <path
     style="fill:#ffffff"
     d="m 605,606 c 4.238,1.118 6.565,5.647 5.75,9.75 -2.242,0.4142 -4.297,-2.559 -5,-4.5 -2.043,-1.183 -2.175,-3.59 -0.75,-5.25 z"
     id="path224" />
  <path
     style="fill:#0d5eaf;fill-opacity:1"
     d="m 524,619 4.75,0.25 c 2.304,2.447 5.218,4.517 6.25,7.75 0.2212,4.543 0.2832,8.951 -2.25,12.75 l -2,1 -1.75,-0.75 -2,0 c -4.307,1.594 -13.12,-5.915 -6.25,-8.25 0.4327,-0.5734 1.272,-0.8954 1.25,-1.75 1.359,-3.37 -4.511,-8.157 0.75,-9.25 0.4327,-0.5734 1.272,-0.8954 1.25,-1.75 z"
     id="path226" />
  <path
     style="fill:#0d5eaf;fill-opacity:1"
     d="m 775,621 12.75,0.25 c 1.418,9.282 -4.347,16.87 -6,25.5 -3.731,5.468 -6.232,11.38 -5.75,18.25 l -1.25,2.75 c -1.394,0.1971 -2.583,0.4827 -3.75,1.25 -1.544,0.3284 -2.767,-0.2883 -4,-1 -8.109,3.747 -10.99,12.93 -17.25,18.75 L 746,687 c -3.509,-1.946 -7.824,-3.41 -10,-7 2.066,-4.982 4.789,-9.771 6,-15 -0.4179,-5.158 -8.221,-5.576 -8,-11 1.211,-3.303 5.781,-1.742 7.75,-4.25 l 2,-4 1.5,-5.5 c 7.882,-7.847 17.04,-14.22 27.5,-17.5 L 775,621 z"
     id="path228" />
  <path
     style="fill:#ffffff"
     d="m 525,622 c 2.292,0.8096 4.111,2.384 5.75,4.25 0.4161,3.073 0.4161,6.427 0,9.5 L 528,637 l -2,-1 -1.75,-0.25 c -0.6306,-3.571 3.932,-7.163 0.75,-10.75 l 0,-3 z"
     id="path230" />
  <path
     style="fill:#ffffff"
     d="m 778,646 -31,0 2.25,-4.75 11,-9 15.75,-7.25 7.75,0.25 0.25,2.75 c -2.255,5.926 -4.257,11.93 -6,18 z"
     id="path232" />
  <path
     style="fill:#0d5eaf;fill-opacity:1"
     d="m 293,630 4.75,0.25 L 313,646 c -0.2174,4.091 -5.197,6.446 -4,11 -0.7673,1.167 -1.053,2.356 -1.25,3.75 L 304,661 c -4.687,-2.08 -10.3,-2.706 -13.75,-7.25 L 290,648 c -2.825,-6.032 0.0168,-12.7 3,-18 z"
     id="path234" />
  <path
     style="fill:#ffffff"
     d="m 308,646 -15,0 c -0.0146,-4.101 -0.4665,-8.595 2.25,-11.75 5.044,2.3 9.053,7.591 12.75,11.75 z"
     id="path236" />
  <path
     style="fill:#0d5eaf"
     d="M 308,646 304.75,656.75 304,657 c -3.458,-1.728 -10.06,-1.485 -10.25,-6.75 -1.344,-0.994 -0.5247,-2.867 -0.75,-4.25 l 15,0 z"
     id="path238" />
  <path
     style="fill:#0d5eaf"
     d="m 778,646 -1.25,2.75 c -6.695,3.354 -1.21,11.64 -6,16 l -9.5,1.5 c -0.8551,0.6138 -1.285,1.491 -1.5,2.5 -4.904,4.284 -7.104,10.74 -12.75,14.25 l -5.75,-3.25 c 0.0397,-4.482 2.495,-8.913 4.75,-12.75 1.471,-5.3 -3.87,-7.812 -6.75,-11.25 l 0,-0.5 c 4.337,-1.114 7.471,-4.93 7.75,-9.25 l 31,0 z"
     id="path240" />
  <path
     style="fill:#0d5eaf;fill-opacity:1"
     d="m 679,737 2,-9 -2.75,-8.75 c 1.92,-2.39 1.844,-5.511 2.75,-8.25 l 5.25,-17.75 c 2.791,-2.741 8.409,-3.402 11.5,-1 0.7256,1.66 0.1332,3.375 -0.75,4.75 0.6127,5.706 -2.341,10.37 -2,16 -2.032,3.791 -1.164,9.218 1.75,12.25 0.1971,1.394 0.4827,2.583 1.25,3.75 l 1,6 c -0.7064,3.017 -4.081,2.443 -5.75,4.25 -0.4269,2.306 0.0492,5.521 -2.25,6.75 -4.993,-0.9396 -7.835,-6.335 -12,-9 z"
     id="path242" />
  <path
     style="fill:#0d5eaf"
     d="m 692,706 -6,0 c 2.543,-3.501 0.9759,-12.56 7.75,-10.75 L 694,697 c -1.976,2.279 -0.0242,5.721 -2,8 l 0,1 z"
     id="path244" />
  <path
     style="fill:#ffffff"
     d="m 692,706 0,3 c -1.085,1.448 -1.14,3.191 -1,5 -3.623,5.949 2.69,11.25 3,17 l 1,2 c -0.9345,3.091 -5.938,2.119 -6.25,5.75 L 688,739 c -3.89,-0.8607 -6.774,-5.068 -3.25,-8.25 L 685,729 c -0.7673,-1.167 -1.053,-2.356 -1.25,-3.75 -1.98,-2.523 -3.054,-7.267 0,-9.5 L 686,706 l 6,0 z"
     id="path246" />
  <path
     style="fill:#0d5eaf;fill-opacity:1"
     d="m 369,710 c 2.314,-0.5884 2.775,1.955 3.75,3.25 l 3.5,12.5 c 5.685,2.595 12.54,0.6476 18.75,1.25 l 9.25,-6.75 4.5,-1 c 1.949,2.789 7.101,2.914 7.25,6.75 -1.21,3.721 -6.116,3.918 -7.75,6.75 0.5734,0.4327 0.8954,1.272 1.75,1.25 1.544,-0.3284 2.767,0.2883 4,1 6.569,-0.1896 5.544,8.414 7.25,12.75 11.74,0.2194 23.65,-0.6112 33.75,-6.75 l 34,0 c 3.603,1.518 3.295,5.861 5.25,8.75 10.95,3.008 23.81,-1.087 33.75,5.25 10.36,-0.7661 21.21,-5.55 31.75,-1.75 3.973,6.19 -2.453,13.03 -1.5,19.5 0.5734,0.4327 0.8954,1.272 1.75,1.25 8.463,-0.3651 13.6,-8.792 21,-12 l 15.75,2.75 c 3.653,-3.338 4.445,-9.159 9,-11.5 3.13,1.23 3.499,5.112 5.25,7.75 l -1,21 c 0.0222,0.8546 -0.8173,1.177 -1.25,1.75 L 597,791 c -5.349,-0.2756 -11.09,0.7771 -16,-1 -8.768,2.288 -18.75,0.3668 -28,1 -23.2,4.945 -47.11,7.458 -71,10 l -2,1 -7,0 -2,1 -9,0 c -0.8546,0.0222 -1.177,-0.8173 -1.75,-1.25 l -0.5,-17.5 c -0.5734,-0.4327 -0.8954,-1.272 -1.75,-1.25 -1.544,0.3284 -2.767,-0.2883 -4,-1 -7.019,0.77 -12.07,-4.378 -18,-7 -10.82,-1.296 -21.68,-2.429 -33,-2 -14.43,-6.271 -31.33,-3.997 -47,-6 l -11.75,-7.25 6,-37.5 c 1.541,-2.137 4.248,-2.89 6.5,-3 4.005,2.324 0.9437,7.354 3.5,10.5 0.7481,1.141 2.242,1.698 3.5,1 0.4327,-0.5734 1.272,-0.8954 1.25,-1.75 -0.9906,-5.373 -5.826,-16.99 3,-18 0.5,-0.1667 0.8333,-0.5 1,-1 z"
     id="path248" />
  <path
     style="fill:#ffffff"
     d="m 555,766 -161,0 -5,0 c -9.276,-3.175 -19.91,-1.645 -30,-2 L 348.25,757.75 353,727 c -0.0222,-0.8546 0.8173,-1.177 1.25,-1.75 3.619,1.74 -0.1489,10.81 6.75,8.75 l 2,1 c 1.937,-0.2295 4.492,0.7654 5.75,-1.25 l -1.5,-18.5 L 368,715 c 2.43,0.2755 1.458,3.053 2.75,4.25 1.312,3.599 1.372,7.823 4.5,10.5 1.394,0.1971 2.583,0.4827 3.75,1.25 7.991,-0.4891 17.55,2.087 23.25,-4.75 1.314,-0.1586 2.157,-1.08 3,-2 l 2.5,-1 2,1 c 1.436,5.825 -10.02,4.537 -8.5,10.5 3.694,2.175 8.267,2.461 12.5,3.5 3.603,3.184 2.697,8.392 4.5,12.5 l 2.75,1.25 23,-2 12,-5 31,0 c 3.54,1.789 2.443,6.813 6.25,8.75 11.68,1.64 24.43,-0.895 34.75,5.25 9.746,-0.6077 19.08,-5.409 28.75,-2.75 0.7152,3.294 -0.1512,7.42 -1.75,9.75 z"
     id="path250" />
  <path
     style="fill:#0d5eaf;fill-opacity:1"
     d="m 679,737 c 0.0666,3.11 -1.704,6.001 -3.75,8.25 -1.334,3.646 -5.318,6.359 -9.25,5.75 -2.278,1.307 -4.371,2.657 -6.75,0.75 l -0.5,-1.5 c -3.879,-4.13 0.1082,-9.277 2.5,-13 L 671,737 c 2.433,-2.015 5.458,-0.5905 8,0 z"
     id="path252" />
  <path
     style="fill:#ffffff"
     d="m 665,740 8.75,0.25 c -0.0345,2.38 -2.339,4.616 -4,6.5 L 667,747 c -1.62,1.153 -4.425,1.77 -5.75,-0.25 -0.6483,-2.323 0.9507,-5.534 3.5,-6 L 665,740 z"
     id="path254" />
  <path
     style="fill:#ffffff"
     d="m 607,766 -6,0 c 1.146,-1.878 2.678,-3.517 3.25,-5.75 3.943,-1.662 2.535,3.589 2.75,5.75 z"
     id="path256" />
  <path
     style="fill:#0d5eaf"
     d="m 555,766 c 0.475,3.428 -2.087,6.259 -0.75,9.75 1.325,2.12 4.13,0.5922 5.75,2.25 l 2,-1 c 6.574,0.5833 10.18,-6.111 15.75,-8.25 l 2.5,-2.5 c 1.94,-0.5754 4.129,-0.4147 5.75,0.75 1.809,-0.14 3.552,-0.0847 5,1 l 5,1 c 2.224,0.5831 4.226,-1.074 5,-3 l 6,0 c -0.8601,5.627 2.424,13.05 -3.25,16.75 L 596,787 l -42,0 c -5.439,1.768 -11.52,2.841 -17,2 l -3,2 -4,0 -2,1 -5,0 -2,1 -5,0 -2,1 -38,4 -2,1 -7,0 -2,1 -0.75,-0.25 c -1.175,-6.045 1.246,-12.91 -1.5,-18.5 L 450,778 436,771 c -11.54,0.0461 -22.23,-2.83 -34,-2 l -8,-3 161,0 z"
     id="path258" />
</svg>
